<?xml version="1.0" encoding="UTF-8"?>
<!DOCTYPE svg PUBLIC "-//W3C//DTD SVG 1.1//EN" "http://www.w3.org/Graphics/SVG/1.1/DTD/svg11.dtd">
<!-- Creator: CorelDRAW X7 -->
<svg xmlns="http://www.w3.org/2000/svg" xml:space="preserve" width="50.207mm" height="50.207mm" version="1.1" style="shape-rendering:geometricPrecision; text-rendering:geometricPrecision; image-rendering:optimizeQuality; fill-rule:evenodd; clip-rule:evenodd"
viewBox="0 0 5060 5060"
 xmlns:xlink="http://www.w3.org/1999/xlink">
 <defs>
  <style type="text/css">
   <![CDATA[
    .fil0 {fill:black}
    .fil1 {fill:white}
   ]]>
  </style>
 </defs>
 <g id="Слой_x0020_1">
  <metadata id="CorelCorpID_0Corel-Layer"/>
  <circle class="fil0" cx="2530" cy="2530" r="2530"/>
  <g id="_2227695627776">
   <path class="fil1" d="M688 4124c674,-10 848,-426 998,-999 617,107 1343,19 1577,-626 52,-145 88,-354 61,-507 -39,-217 -237,-179 -443,-159 -35,159 15,351 -31,530 -118,469 -548,782 -1111,643 -5,-114 233,-992 317,-1181 82,-184 148,-207 210,-341 -314,22 -490,174 -640,402 -368,560 -291,1780 -855,2169l-63 50c-5,3 -13,12 -20,19z"/>
   <path class="fil1" d="M1226 2559c-122,-101 -339,-190 -275,-596 132,-842 1434,-907 1752,-388 -71,38 -118,69 -231,164 -143,123 -260,298 -286,487 -35,255 82,499 383,323 -364,-436 -91,-955 785,-802 244,42 582,149 854,87 243,-55 399,-263 419,-562 -71,38 -28,13 -82,50 -480,241 -961,81 -1516,143 -219,-352 -1234,-502 -1870,-149 -840,466 -558,1457 67,1243z"/>
   <path class="fil1" d="M2247 3679l20 -228c-489,-278 -702,317 -563,594 162,326 972,549 1415,-837 57,-181 116,-371 290,-428 103,-34 233,-30 308,32 107,87 19,132 108,236 61,-146 164,-493 185,-672 -57,-9 -114,89 -146,113 -21,16 -63,18 -310,77 -368,89 -264,322 -719,568 -276,148 -160,77 -263,407 -82,260 -277,755 -650,606 -407,-162 49,-860 325,-468z"/>
  </g>
 </g>
</svg>
